G04 #@! TF.GenerationSoftware,KiCad,Pcbnew,(5.0.2)-1*
G04 #@! TF.CreationDate,2019-09-26T18:13:48+02:00*
G04 #@! TF.ProjectId,AskSinAnalyzer,41736b53-696e-4416-9e61-6c797a65722e,V2.0.1*
G04 #@! TF.SameCoordinates,Original*
G04 #@! TF.FileFunction,Paste,Top*
G04 #@! TF.FilePolarity,Positive*
%FSLAX46Y46*%
G04 Gerber Fmt 4.6, Leading zero omitted, Abs format (unit mm)*
G04 Created by KiCad (PCBNEW (5.0.2)-1) date 26.09.2019 18:13:48*
%MOMM*%
%LPD*%
G01*
G04 APERTURE LIST*
%ADD10R,1.900000X0.800000*%
%ADD11C,0.100000*%
%ADD12C,1.150000*%
G04 APERTURE END LIST*
D10*
G04 #@! TO.C,Q1*
X131777000Y-128572000D03*
X131777000Y-126672000D03*
X128777000Y-127622000D03*
G04 #@! TD*
D11*
G04 #@! TO.C,R1*
G36*
X135544505Y-127825204D02*
X135568773Y-127828804D01*
X135592572Y-127834765D01*
X135615671Y-127843030D01*
X135637850Y-127853520D01*
X135658893Y-127866132D01*
X135678599Y-127880747D01*
X135696777Y-127897223D01*
X135713253Y-127915401D01*
X135727868Y-127935107D01*
X135740480Y-127956150D01*
X135750970Y-127978329D01*
X135759235Y-128001428D01*
X135765196Y-128025227D01*
X135768796Y-128049495D01*
X135770000Y-128073999D01*
X135770000Y-128974001D01*
X135768796Y-128998505D01*
X135765196Y-129022773D01*
X135759235Y-129046572D01*
X135750970Y-129069671D01*
X135740480Y-129091850D01*
X135727868Y-129112893D01*
X135713253Y-129132599D01*
X135696777Y-129150777D01*
X135678599Y-129167253D01*
X135658893Y-129181868D01*
X135637850Y-129194480D01*
X135615671Y-129204970D01*
X135592572Y-129213235D01*
X135568773Y-129219196D01*
X135544505Y-129222796D01*
X135520001Y-129224000D01*
X134869999Y-129224000D01*
X134845495Y-129222796D01*
X134821227Y-129219196D01*
X134797428Y-129213235D01*
X134774329Y-129204970D01*
X134752150Y-129194480D01*
X134731107Y-129181868D01*
X134711401Y-129167253D01*
X134693223Y-129150777D01*
X134676747Y-129132599D01*
X134662132Y-129112893D01*
X134649520Y-129091850D01*
X134639030Y-129069671D01*
X134630765Y-129046572D01*
X134624804Y-129022773D01*
X134621204Y-128998505D01*
X134620000Y-128974001D01*
X134620000Y-128073999D01*
X134621204Y-128049495D01*
X134624804Y-128025227D01*
X134630765Y-128001428D01*
X134639030Y-127978329D01*
X134649520Y-127956150D01*
X134662132Y-127935107D01*
X134676747Y-127915401D01*
X134693223Y-127897223D01*
X134711401Y-127880747D01*
X134731107Y-127866132D01*
X134752150Y-127853520D01*
X134774329Y-127843030D01*
X134797428Y-127834765D01*
X134821227Y-127828804D01*
X134845495Y-127825204D01*
X134869999Y-127824000D01*
X135520001Y-127824000D01*
X135544505Y-127825204D01*
X135544505Y-127825204D01*
G37*
D12*
X135195000Y-128524000D03*
D11*
G36*
X137594505Y-127825204D02*
X137618773Y-127828804D01*
X137642572Y-127834765D01*
X137665671Y-127843030D01*
X137687850Y-127853520D01*
X137708893Y-127866132D01*
X137728599Y-127880747D01*
X137746777Y-127897223D01*
X137763253Y-127915401D01*
X137777868Y-127935107D01*
X137790480Y-127956150D01*
X137800970Y-127978329D01*
X137809235Y-128001428D01*
X137815196Y-128025227D01*
X137818796Y-128049495D01*
X137820000Y-128073999D01*
X137820000Y-128974001D01*
X137818796Y-128998505D01*
X137815196Y-129022773D01*
X137809235Y-129046572D01*
X137800970Y-129069671D01*
X137790480Y-129091850D01*
X137777868Y-129112893D01*
X137763253Y-129132599D01*
X137746777Y-129150777D01*
X137728599Y-129167253D01*
X137708893Y-129181868D01*
X137687850Y-129194480D01*
X137665671Y-129204970D01*
X137642572Y-129213235D01*
X137618773Y-129219196D01*
X137594505Y-129222796D01*
X137570001Y-129224000D01*
X136919999Y-129224000D01*
X136895495Y-129222796D01*
X136871227Y-129219196D01*
X136847428Y-129213235D01*
X136824329Y-129204970D01*
X136802150Y-129194480D01*
X136781107Y-129181868D01*
X136761401Y-129167253D01*
X136743223Y-129150777D01*
X136726747Y-129132599D01*
X136712132Y-129112893D01*
X136699520Y-129091850D01*
X136689030Y-129069671D01*
X136680765Y-129046572D01*
X136674804Y-129022773D01*
X136671204Y-128998505D01*
X136670000Y-128974001D01*
X136670000Y-128073999D01*
X136671204Y-128049495D01*
X136674804Y-128025227D01*
X136680765Y-128001428D01*
X136689030Y-127978329D01*
X136699520Y-127956150D01*
X136712132Y-127935107D01*
X136726747Y-127915401D01*
X136743223Y-127897223D01*
X136761401Y-127880747D01*
X136781107Y-127866132D01*
X136802150Y-127853520D01*
X136824329Y-127843030D01*
X136847428Y-127834765D01*
X136871227Y-127828804D01*
X136895495Y-127825204D01*
X136919999Y-127824000D01*
X137570001Y-127824000D01*
X137594505Y-127825204D01*
X137594505Y-127825204D01*
G37*
D12*
X137245000Y-128524000D03*
G04 #@! TD*
D11*
G04 #@! TO.C,R2*
G36*
X178909505Y-105607204D02*
X178933773Y-105610804D01*
X178957572Y-105616765D01*
X178980671Y-105625030D01*
X179002850Y-105635520D01*
X179023893Y-105648132D01*
X179043599Y-105662747D01*
X179061777Y-105679223D01*
X179078253Y-105697401D01*
X179092868Y-105717107D01*
X179105480Y-105738150D01*
X179115970Y-105760329D01*
X179124235Y-105783428D01*
X179130196Y-105807227D01*
X179133796Y-105831495D01*
X179135000Y-105855999D01*
X179135000Y-106506001D01*
X179133796Y-106530505D01*
X179130196Y-106554773D01*
X179124235Y-106578572D01*
X179115970Y-106601671D01*
X179105480Y-106623850D01*
X179092868Y-106644893D01*
X179078253Y-106664599D01*
X179061777Y-106682777D01*
X179043599Y-106699253D01*
X179023893Y-106713868D01*
X179002850Y-106726480D01*
X178980671Y-106736970D01*
X178957572Y-106745235D01*
X178933773Y-106751196D01*
X178909505Y-106754796D01*
X178885001Y-106756000D01*
X177984999Y-106756000D01*
X177960495Y-106754796D01*
X177936227Y-106751196D01*
X177912428Y-106745235D01*
X177889329Y-106736970D01*
X177867150Y-106726480D01*
X177846107Y-106713868D01*
X177826401Y-106699253D01*
X177808223Y-106682777D01*
X177791747Y-106664599D01*
X177777132Y-106644893D01*
X177764520Y-106623850D01*
X177754030Y-106601671D01*
X177745765Y-106578572D01*
X177739804Y-106554773D01*
X177736204Y-106530505D01*
X177735000Y-106506001D01*
X177735000Y-105855999D01*
X177736204Y-105831495D01*
X177739804Y-105807227D01*
X177745765Y-105783428D01*
X177754030Y-105760329D01*
X177764520Y-105738150D01*
X177777132Y-105717107D01*
X177791747Y-105697401D01*
X177808223Y-105679223D01*
X177826401Y-105662747D01*
X177846107Y-105648132D01*
X177867150Y-105635520D01*
X177889329Y-105625030D01*
X177912428Y-105616765D01*
X177936227Y-105610804D01*
X177960495Y-105607204D01*
X177984999Y-105606000D01*
X178885001Y-105606000D01*
X178909505Y-105607204D01*
X178909505Y-105607204D01*
G37*
D12*
X178435000Y-106181000D03*
D11*
G36*
X178909505Y-103557204D02*
X178933773Y-103560804D01*
X178957572Y-103566765D01*
X178980671Y-103575030D01*
X179002850Y-103585520D01*
X179023893Y-103598132D01*
X179043599Y-103612747D01*
X179061777Y-103629223D01*
X179078253Y-103647401D01*
X179092868Y-103667107D01*
X179105480Y-103688150D01*
X179115970Y-103710329D01*
X179124235Y-103733428D01*
X179130196Y-103757227D01*
X179133796Y-103781495D01*
X179135000Y-103805999D01*
X179135000Y-104456001D01*
X179133796Y-104480505D01*
X179130196Y-104504773D01*
X179124235Y-104528572D01*
X179115970Y-104551671D01*
X179105480Y-104573850D01*
X179092868Y-104594893D01*
X179078253Y-104614599D01*
X179061777Y-104632777D01*
X179043599Y-104649253D01*
X179023893Y-104663868D01*
X179002850Y-104676480D01*
X178980671Y-104686970D01*
X178957572Y-104695235D01*
X178933773Y-104701196D01*
X178909505Y-104704796D01*
X178885001Y-104706000D01*
X177984999Y-104706000D01*
X177960495Y-104704796D01*
X177936227Y-104701196D01*
X177912428Y-104695235D01*
X177889329Y-104686970D01*
X177867150Y-104676480D01*
X177846107Y-104663868D01*
X177826401Y-104649253D01*
X177808223Y-104632777D01*
X177791747Y-104614599D01*
X177777132Y-104594893D01*
X177764520Y-104573850D01*
X177754030Y-104551671D01*
X177745765Y-104528572D01*
X177739804Y-104504773D01*
X177736204Y-104480505D01*
X177735000Y-104456001D01*
X177735000Y-103805999D01*
X177736204Y-103781495D01*
X177739804Y-103757227D01*
X177745765Y-103733428D01*
X177754030Y-103710329D01*
X177764520Y-103688150D01*
X177777132Y-103667107D01*
X177791747Y-103647401D01*
X177808223Y-103629223D01*
X177826401Y-103612747D01*
X177846107Y-103598132D01*
X177867150Y-103585520D01*
X177889329Y-103575030D01*
X177912428Y-103566765D01*
X177936227Y-103560804D01*
X177960495Y-103557204D01*
X177984999Y-103556000D01*
X178885001Y-103556000D01*
X178909505Y-103557204D01*
X178909505Y-103557204D01*
G37*
D12*
X178435000Y-104131000D03*
G04 #@! TD*
D11*
G04 #@! TO.C,R3*
G36*
X175110505Y-104330204D02*
X175134773Y-104333804D01*
X175158572Y-104339765D01*
X175181671Y-104348030D01*
X175203850Y-104358520D01*
X175224893Y-104371132D01*
X175244599Y-104385747D01*
X175262777Y-104402223D01*
X175279253Y-104420401D01*
X175293868Y-104440107D01*
X175306480Y-104461150D01*
X175316970Y-104483329D01*
X175325235Y-104506428D01*
X175331196Y-104530227D01*
X175334796Y-104554495D01*
X175336000Y-104578999D01*
X175336000Y-105479001D01*
X175334796Y-105503505D01*
X175331196Y-105527773D01*
X175325235Y-105551572D01*
X175316970Y-105574671D01*
X175306480Y-105596850D01*
X175293868Y-105617893D01*
X175279253Y-105637599D01*
X175262777Y-105655777D01*
X175244599Y-105672253D01*
X175224893Y-105686868D01*
X175203850Y-105699480D01*
X175181671Y-105709970D01*
X175158572Y-105718235D01*
X175134773Y-105724196D01*
X175110505Y-105727796D01*
X175086001Y-105729000D01*
X174435999Y-105729000D01*
X174411495Y-105727796D01*
X174387227Y-105724196D01*
X174363428Y-105718235D01*
X174340329Y-105709970D01*
X174318150Y-105699480D01*
X174297107Y-105686868D01*
X174277401Y-105672253D01*
X174259223Y-105655777D01*
X174242747Y-105637599D01*
X174228132Y-105617893D01*
X174215520Y-105596850D01*
X174205030Y-105574671D01*
X174196765Y-105551572D01*
X174190804Y-105527773D01*
X174187204Y-105503505D01*
X174186000Y-105479001D01*
X174186000Y-104578999D01*
X174187204Y-104554495D01*
X174190804Y-104530227D01*
X174196765Y-104506428D01*
X174205030Y-104483329D01*
X174215520Y-104461150D01*
X174228132Y-104440107D01*
X174242747Y-104420401D01*
X174259223Y-104402223D01*
X174277401Y-104385747D01*
X174297107Y-104371132D01*
X174318150Y-104358520D01*
X174340329Y-104348030D01*
X174363428Y-104339765D01*
X174387227Y-104333804D01*
X174411495Y-104330204D01*
X174435999Y-104329000D01*
X175086001Y-104329000D01*
X175110505Y-104330204D01*
X175110505Y-104330204D01*
G37*
D12*
X174761000Y-105029000D03*
D11*
G36*
X173060505Y-104330204D02*
X173084773Y-104333804D01*
X173108572Y-104339765D01*
X173131671Y-104348030D01*
X173153850Y-104358520D01*
X173174893Y-104371132D01*
X173194599Y-104385747D01*
X173212777Y-104402223D01*
X173229253Y-104420401D01*
X173243868Y-104440107D01*
X173256480Y-104461150D01*
X173266970Y-104483329D01*
X173275235Y-104506428D01*
X173281196Y-104530227D01*
X173284796Y-104554495D01*
X173286000Y-104578999D01*
X173286000Y-105479001D01*
X173284796Y-105503505D01*
X173281196Y-105527773D01*
X173275235Y-105551572D01*
X173266970Y-105574671D01*
X173256480Y-105596850D01*
X173243868Y-105617893D01*
X173229253Y-105637599D01*
X173212777Y-105655777D01*
X173194599Y-105672253D01*
X173174893Y-105686868D01*
X173153850Y-105699480D01*
X173131671Y-105709970D01*
X173108572Y-105718235D01*
X173084773Y-105724196D01*
X173060505Y-105727796D01*
X173036001Y-105729000D01*
X172385999Y-105729000D01*
X172361495Y-105727796D01*
X172337227Y-105724196D01*
X172313428Y-105718235D01*
X172290329Y-105709970D01*
X172268150Y-105699480D01*
X172247107Y-105686868D01*
X172227401Y-105672253D01*
X172209223Y-105655777D01*
X172192747Y-105637599D01*
X172178132Y-105617893D01*
X172165520Y-105596850D01*
X172155030Y-105574671D01*
X172146765Y-105551572D01*
X172140804Y-105527773D01*
X172137204Y-105503505D01*
X172136000Y-105479001D01*
X172136000Y-104578999D01*
X172137204Y-104554495D01*
X172140804Y-104530227D01*
X172146765Y-104506428D01*
X172155030Y-104483329D01*
X172165520Y-104461150D01*
X172178132Y-104440107D01*
X172192747Y-104420401D01*
X172209223Y-104402223D01*
X172227401Y-104385747D01*
X172247107Y-104371132D01*
X172268150Y-104358520D01*
X172290329Y-104348030D01*
X172313428Y-104339765D01*
X172337227Y-104333804D01*
X172361495Y-104330204D01*
X172385999Y-104329000D01*
X173036001Y-104329000D01*
X173060505Y-104330204D01*
X173060505Y-104330204D01*
G37*
D12*
X172711000Y-105029000D03*
G04 #@! TD*
M02*
