M48
;DRILL file {KiCad (5.0.2)-1} date 26.09.2019 18:13:52
;FORMAT={-:-/ absolute / inch / decimal}
FMAT,2
INCH,TZ
T1C0.0157
T2C0.0197
T3C0.0236
T4C0.0300
T5C0.0315
T6C0.0354
T7C0.0394
T8C0.0409
T9C0.0433
T10C0.0591
T11C0.1181
T12C0.1260
%
G90
G05
T1
X5.9107Y-3.652
X5.9406Y-3.6815
X6.7868Y-4.0675
T2
X4.3955Y-5.6
X4.4232Y-5.5332
X4.4232Y-5.6668
X4.49Y-5.5055
X4.49Y-5.6945
X4.5568Y-5.5332
X4.5568Y-5.6668
X4.5845Y-5.6
X6.858Y-5.6
X6.8857Y-5.5332
X6.8857Y-5.6668
X6.9525Y-5.5055
X6.9525Y-5.6945
X7.0193Y-5.5332
X7.0193Y-5.6668
X7.047Y-5.6
X6.858Y-2.2
X6.8857Y-2.1332
X6.8857Y-2.2668
X6.9525Y-2.1055
X6.9525Y-2.2945
X7.0193Y-2.1332
X7.0193Y-2.2668
X7.047Y-2.2
X4.3955Y-2.2
X4.4232Y-2.1332
X4.4232Y-2.2668
X4.49Y-2.1055
X4.49Y-2.2945
X4.5568Y-2.1332
X4.5568Y-2.2668
X4.5845Y-2.2
T3
X5.2385Y-4.754
X5.2976Y-4.754
X6.85Y-3.4089
X6.85Y-3.468
T4
X4.9857Y-5.4596
X5.0857Y-5.4596
X5.1857Y-5.4596
X5.2857Y-5.4596
X5.3857Y-5.4596
X5.4857Y-2.2706
X5.4857Y-5.4596
X5.5857Y-2.2706
X5.5857Y-5.4596
X5.6857Y-2.2706
X5.6857Y-5.4596
X5.7818Y-5.4596
X5.7842Y-2.2706
X5.8857Y-5.4596
X5.9857Y-5.4596
X6.0869Y-5.4596
X6.1857Y-5.4596
X6.2857Y-5.4596
T5
X6.1313Y-3.4484
X6.21Y-3.4484
X6.2887Y-3.4484
X6.3675Y-3.4484
X6.4462Y-3.4484
X6.525Y-3.4484
X6.6037Y-3.4484
X6.6824Y-3.4484
X5.7075Y-4.73
X5.7075Y-5.03
X5.8075Y-4.73
X5.8075Y-5.03
X5.9075Y-4.73
X5.9075Y-5.03
T6
X6.6115Y-4.39
X6.7115Y-4.39
X6.853Y-4.391
X6.953Y-4.391
T7
X6.105Y-2.155
X6.105Y-2.255
X6.105Y-2.355
X6.105Y-2.455
X6.105Y-2.555
X6.105Y-2.655
X6.105Y-2.755
X6.105Y-2.855
X6.105Y-2.955
X6.105Y-3.055
X6.105Y-3.155
X6.105Y-3.255
X6.505Y-3.255
X6.605Y-2.505
X6.605Y-2.605
X6.605Y-2.905
X6.605Y-3.005
X6.605Y-3.255
X6.705Y-2.155
X6.705Y-2.255
X6.705Y-2.355
X6.705Y-2.455
X6.705Y-2.555
X6.705Y-2.655
X6.705Y-2.755
X6.705Y-2.855
X6.705Y-2.955
X6.705Y-3.055
X6.705Y-3.155
X6.705Y-3.255
X6.5408Y-4.5763
X6.5408Y-4.6763
X6.5408Y-4.7763
X6.5408Y-4.8763
X6.5408Y-4.9763
X6.8818Y-4.5578
X6.8837Y-4.9948
T8
X4.85Y-2.85
X4.85Y-2.95
X4.85Y-3.05
X4.85Y-3.15
X4.85Y-3.25
X4.85Y-3.35
X4.85Y-3.45
X4.85Y-3.55
X4.85Y-3.65
X4.85Y-3.75
X4.85Y-3.85
X4.85Y-3.95
X4.85Y-4.05
X4.85Y-4.15
X4.85Y-4.25
X5.75Y-2.85
X5.75Y-2.95
X5.75Y-3.05
X5.75Y-3.15
X5.75Y-3.25
X5.75Y-3.35
X5.75Y-3.45
X5.75Y-3.55
X5.75Y-3.65
X5.75Y-3.75
X5.75Y-3.85
X5.75Y-3.95
X5.75Y-4.05
X5.75Y-4.15
X5.75Y-4.25
X5.85Y-2.85
X5.85Y-2.95
X5.85Y-3.05
X5.85Y-3.15
X5.85Y-3.25
X5.85Y-3.35
X5.85Y-3.45
X5.85Y-3.55
X5.85Y-3.65
X5.85Y-3.75
X5.85Y-3.85
X5.85Y-3.95
X5.85Y-4.05
X5.85Y-4.15
X5.85Y-4.25
T9
X6.093Y-4.363
X6.093Y-4.5402
X6.3489Y-4.363
X6.3489Y-4.5402
T10
X6.367Y-4.178
T11
X4.8835Y-2.5449
X4.8835Y-4.3874
X5.8165Y-2.5449
X5.8165Y-4.3874
X6.7322Y-4.5992
X6.7322Y-4.9535
T12
X4.49Y-5.6
X6.9525Y-5.6
X6.9525Y-2.2
X4.49Y-2.2
T7
X4.6603Y-4.7521G85X4.6603Y-4.8309
G05
X4.739Y-4.9765G85X4.8178Y-4.9765
G05
X4.8965Y-4.7521G85X4.8965Y-4.8309
G05
T0
M30
