%FSLAX45Y45*%
G04 Gerber Fmt 4.5, Leading zero omitted, Abs format (unit mm)*
G04 Created by KiCad (PCBNEW (5.0.2)-1) date 26.09.2019 18:13:53*
%MOMM*%
%LPD*%
G01*
G04 APERTURE LIST*
%ADD10C,0.150000*%
%ADD11C,0.200000*%
%ADD12C,0.300000*%
G04 APERTURE END LIST*
D10*
X17272000Y-5080000D02*
X17907000Y-5080000D01*
X17145000Y-5207000D02*
G75*
G02X17272000Y-5080000I127000J0D01*
G01*
X15240000Y-5080000D02*
G75*
G02X15367000Y-5207000I0J-127000D01*
G01*
X15494000Y-5334000D02*
G75*
G02X15367000Y-5207000I0J127000D01*
G01*
X17145000Y-5207000D02*
G75*
G02X17018000Y-5334000I-127000J0D01*
G01*
X15494000Y-5334000D02*
X17018000Y-5334000D01*
X18034000Y-14458950D02*
G75*
G02X17907000Y-14585950I-127000J0D01*
G01*
X11150605Y-14585849D02*
G75*
G02X11029950Y-14462760I6345J126899D01*
G01*
X11029950Y-5207000D02*
G75*
G02X11156950Y-5080000I127000J0D01*
G01*
X17907000Y-5080000D02*
G75*
G02X18034000Y-5207000I0J-127000D01*
G01*
X15240000Y-5080000D02*
X11156950Y-5080000D01*
X18034000Y-14458950D02*
X18034000Y-5207000D01*
X11150600Y-14585950D02*
X17905730Y-14585950D01*
X11029950Y-5207000D02*
X11029950Y-14464030D01*
D11*
X11955800Y-13215600D02*
X12275800Y-13535600D01*
X12275800Y-13215600D02*
X11955800Y-13535600D01*
X16356400Y-5608340D02*
X16676400Y-5928340D01*
X16676400Y-5608340D02*
X16356400Y-5928340D01*
X11955800Y-5608340D02*
X12275800Y-5928340D01*
X12275800Y-5608340D02*
X11955800Y-5928340D01*
X16356400Y-13216900D02*
X16676400Y-13536900D01*
X16676400Y-13216900D02*
X16356400Y-13536900D01*
D12*
X11308878Y-15059164D02*
X11308878Y-14759164D01*
X11380307Y-14759164D01*
X11423164Y-14773450D01*
X11451736Y-14802021D01*
X11466021Y-14830593D01*
X11480307Y-14887736D01*
X11480307Y-14930593D01*
X11466021Y-14987736D01*
X11451736Y-15016307D01*
X11423164Y-15044879D01*
X11380307Y-15059164D01*
X11308878Y-15059164D01*
X11608878Y-15059164D02*
X11608878Y-14859164D01*
X11608878Y-14916307D02*
X11623164Y-14887736D01*
X11637450Y-14873450D01*
X11666021Y-14859164D01*
X11694593Y-14859164D01*
X11794593Y-15059164D02*
X11794593Y-14859164D01*
X11794593Y-14759164D02*
X11780307Y-14773450D01*
X11794593Y-14787736D01*
X11808878Y-14773450D01*
X11794593Y-14759164D01*
X11794593Y-14787736D01*
X11980307Y-15059164D02*
X11951736Y-15044879D01*
X11937450Y-15016307D01*
X11937450Y-14759164D01*
X12137450Y-15059164D02*
X12108878Y-15044879D01*
X12094593Y-15016307D01*
X12094593Y-14759164D01*
X12480307Y-15059164D02*
X12480307Y-14759164D01*
X12580307Y-14973450D01*
X12680307Y-14759164D01*
X12680307Y-15059164D01*
X12951736Y-15059164D02*
X12951736Y-14902021D01*
X12937450Y-14873450D01*
X12908878Y-14859164D01*
X12851736Y-14859164D01*
X12823164Y-14873450D01*
X12951736Y-15044879D02*
X12923164Y-15059164D01*
X12851736Y-15059164D01*
X12823164Y-15044879D01*
X12808878Y-15016307D01*
X12808878Y-14987736D01*
X12823164Y-14959164D01*
X12851736Y-14944879D01*
X12923164Y-14944879D01*
X12951736Y-14930593D01*
X13094593Y-14859164D02*
X13094593Y-15159164D01*
X13094593Y-14873450D02*
X13123164Y-14859164D01*
X13180307Y-14859164D01*
X13208878Y-14873450D01*
X13223164Y-14887736D01*
X13237450Y-14916307D01*
X13237450Y-15002021D01*
X13223164Y-15030593D01*
X13208878Y-15044879D01*
X13180307Y-15059164D01*
X13123164Y-15059164D01*
X13094593Y-15044879D01*
X13366021Y-15030593D02*
X13380307Y-15044879D01*
X13366021Y-15059164D01*
X13351736Y-15044879D01*
X13366021Y-15030593D01*
X13366021Y-15059164D01*
X13366021Y-14873450D02*
X13380307Y-14887736D01*
X13366021Y-14902021D01*
X13351736Y-14887736D01*
X13366021Y-14873450D01*
X13366021Y-14902021D01*
X10702450Y-15393450D02*
X11022450Y-15713450D01*
X11022450Y-15393450D02*
X10702450Y-15713450D01*
X11280307Y-15389164D02*
X11466021Y-15389164D01*
X11366021Y-15503450D01*
X11408878Y-15503450D01*
X11437450Y-15517736D01*
X11451736Y-15532021D01*
X11466021Y-15560593D01*
X11466021Y-15632021D01*
X11451736Y-15660593D01*
X11437450Y-15674879D01*
X11408878Y-15689164D01*
X11323164Y-15689164D01*
X11294593Y-15674879D01*
X11280307Y-15660593D01*
X11594593Y-15660593D02*
X11608878Y-15674879D01*
X11594593Y-15689164D01*
X11580307Y-15674879D01*
X11594593Y-15660593D01*
X11594593Y-15689164D01*
X11723164Y-15417736D02*
X11737450Y-15403450D01*
X11766021Y-15389164D01*
X11837450Y-15389164D01*
X11866021Y-15403450D01*
X11880307Y-15417736D01*
X11894593Y-15446307D01*
X11894593Y-15474879D01*
X11880307Y-15517736D01*
X11708878Y-15689164D01*
X11894593Y-15689164D01*
X12080307Y-15389164D02*
X12108878Y-15389164D01*
X12137450Y-15403450D01*
X12151736Y-15417736D01*
X12166021Y-15446307D01*
X12180307Y-15503450D01*
X12180307Y-15574879D01*
X12166021Y-15632021D01*
X12151736Y-15660593D01*
X12137450Y-15674879D01*
X12108878Y-15689164D01*
X12080307Y-15689164D01*
X12051736Y-15674879D01*
X12037450Y-15660593D01*
X12023164Y-15632021D01*
X12008878Y-15574879D01*
X12008878Y-15503450D01*
X12023164Y-15446307D01*
X12037450Y-15417736D01*
X12051736Y-15403450D01*
X12080307Y-15389164D01*
X12308878Y-15689164D02*
X12308878Y-15489164D01*
X12308878Y-15517736D02*
X12323164Y-15503450D01*
X12351736Y-15489164D01*
X12394593Y-15489164D01*
X12423164Y-15503450D01*
X12437450Y-15532021D01*
X12437450Y-15689164D01*
X12437450Y-15532021D02*
X12451736Y-15503450D01*
X12480307Y-15489164D01*
X12523164Y-15489164D01*
X12551736Y-15503450D01*
X12566021Y-15532021D01*
X12566021Y-15689164D01*
X12708878Y-15689164D02*
X12708878Y-15489164D01*
X12708878Y-15517736D02*
X12723164Y-15503450D01*
X12751736Y-15489164D01*
X12794593Y-15489164D01*
X12823164Y-15503450D01*
X12837450Y-15532021D01*
X12837450Y-15689164D01*
X12837450Y-15532021D02*
X12851736Y-15503450D01*
X12880307Y-15489164D01*
X12923164Y-15489164D01*
X12951736Y-15503450D01*
X12966021Y-15532021D01*
X12966021Y-15689164D01*
X13551736Y-15374879D02*
X13294593Y-15760593D01*
X13937450Y-15389164D02*
X13966021Y-15389164D01*
X13994593Y-15403450D01*
X14008878Y-15417736D01*
X14023164Y-15446307D01*
X14037450Y-15503450D01*
X14037450Y-15574879D01*
X14023164Y-15632021D01*
X14008878Y-15660593D01*
X13994593Y-15674879D01*
X13966021Y-15689164D01*
X13937450Y-15689164D01*
X13908878Y-15674879D01*
X13894593Y-15660593D01*
X13880307Y-15632021D01*
X13866021Y-15574879D01*
X13866021Y-15503450D01*
X13880307Y-15446307D01*
X13894593Y-15417736D01*
X13908878Y-15403450D01*
X13937450Y-15389164D01*
X14166021Y-15660593D02*
X14180307Y-15674879D01*
X14166021Y-15689164D01*
X14151736Y-15674879D01*
X14166021Y-15660593D01*
X14166021Y-15689164D01*
X14466021Y-15689164D02*
X14294593Y-15689164D01*
X14380307Y-15689164D02*
X14380307Y-15389164D01*
X14351736Y-15432021D01*
X14323164Y-15460593D01*
X14294593Y-15474879D01*
X14580307Y-15417736D02*
X14594593Y-15403450D01*
X14623164Y-15389164D01*
X14694593Y-15389164D01*
X14723164Y-15403450D01*
X14737450Y-15417736D01*
X14751736Y-15446307D01*
X14751736Y-15474879D01*
X14737450Y-15517736D01*
X14566021Y-15689164D01*
X14751736Y-15689164D01*
X15008878Y-15389164D02*
X14951736Y-15389164D01*
X14923164Y-15403450D01*
X14908878Y-15417736D01*
X14880307Y-15460593D01*
X14866021Y-15517736D01*
X14866021Y-15632021D01*
X14880307Y-15660593D01*
X14894593Y-15674879D01*
X14923164Y-15689164D01*
X14980307Y-15689164D01*
X15008878Y-15674879D01*
X15023164Y-15660593D01*
X15037450Y-15632021D01*
X15037450Y-15560593D01*
X15023164Y-15532021D01*
X15008878Y-15517736D01*
X14980307Y-15503450D01*
X14923164Y-15503450D01*
X14894593Y-15517736D01*
X14880307Y-15532021D01*
X14866021Y-15560593D01*
X15151736Y-15389164D02*
X15151736Y-15446307D01*
X15266021Y-15389164D02*
X15266021Y-15446307D01*
X15708878Y-15803450D02*
X15694593Y-15789164D01*
X15666021Y-15746307D01*
X15651736Y-15717736D01*
X15637450Y-15674879D01*
X15623164Y-15603450D01*
X15623164Y-15546307D01*
X15637450Y-15474879D01*
X15651736Y-15432021D01*
X15666021Y-15403450D01*
X15694593Y-15360593D01*
X15708878Y-15346307D01*
X15951736Y-15489164D02*
X15951736Y-15689164D01*
X15880307Y-15374879D02*
X15808878Y-15589164D01*
X15994593Y-15589164D01*
X16337450Y-15689164D02*
X16337450Y-15389164D01*
X16466021Y-15689164D02*
X16466021Y-15532021D01*
X16451736Y-15503450D01*
X16423164Y-15489164D01*
X16380307Y-15489164D01*
X16351736Y-15503450D01*
X16337450Y-15517736D01*
X16651736Y-15689164D02*
X16623164Y-15674879D01*
X16608878Y-15660593D01*
X16594593Y-15632021D01*
X16594593Y-15546307D01*
X16608878Y-15517736D01*
X16623164Y-15503450D01*
X16651736Y-15489164D01*
X16694593Y-15489164D01*
X16723164Y-15503450D01*
X16737450Y-15517736D01*
X16751736Y-15546307D01*
X16751736Y-15632021D01*
X16737450Y-15660593D01*
X16723164Y-15674879D01*
X16694593Y-15689164D01*
X16651736Y-15689164D01*
X16923164Y-15689164D02*
X16894593Y-15674879D01*
X16880307Y-15646307D01*
X16880307Y-15389164D01*
X17151736Y-15674879D02*
X17123164Y-15689164D01*
X17066021Y-15689164D01*
X17037450Y-15674879D01*
X17023164Y-15646307D01*
X17023164Y-15532021D01*
X17037450Y-15503450D01*
X17066021Y-15489164D01*
X17123164Y-15489164D01*
X17151736Y-15503450D01*
X17166021Y-15532021D01*
X17166021Y-15560593D01*
X17023164Y-15589164D01*
X17280307Y-15674879D02*
X17308878Y-15689164D01*
X17366021Y-15689164D01*
X17394593Y-15674879D01*
X17408878Y-15646307D01*
X17408878Y-15632021D01*
X17394593Y-15603450D01*
X17366021Y-15589164D01*
X17323164Y-15589164D01*
X17294593Y-15574879D01*
X17280307Y-15546307D01*
X17280307Y-15532021D01*
X17294593Y-15503450D01*
X17323164Y-15489164D01*
X17366021Y-15489164D01*
X17394593Y-15503450D01*
X17508878Y-15803450D02*
X17523164Y-15789164D01*
X17551736Y-15746307D01*
X17566021Y-15717736D01*
X17580307Y-15674879D01*
X17594593Y-15603450D01*
X17594593Y-15546307D01*
X17580307Y-15474879D01*
X17566021Y-15432021D01*
X17551736Y-15403450D01*
X17523164Y-15360593D01*
X17508878Y-15346307D01*
X18051736Y-15803450D02*
X18037450Y-15789164D01*
X18008878Y-15746307D01*
X17994593Y-15717736D01*
X17980307Y-15674879D01*
X17966021Y-15603450D01*
X17966021Y-15546307D01*
X17980307Y-15474879D01*
X17994593Y-15432021D01*
X18008878Y-15403450D01*
X18037450Y-15360593D01*
X18051736Y-15346307D01*
X18166021Y-15489164D02*
X18166021Y-15689164D01*
X18166021Y-15517736D02*
X18180307Y-15503450D01*
X18208878Y-15489164D01*
X18251736Y-15489164D01*
X18280307Y-15503450D01*
X18294593Y-15532021D01*
X18294593Y-15689164D01*
X18480307Y-15689164D02*
X18451736Y-15674879D01*
X18437450Y-15660593D01*
X18423164Y-15632021D01*
X18423164Y-15546307D01*
X18437450Y-15517736D01*
X18451736Y-15503450D01*
X18480307Y-15489164D01*
X18523164Y-15489164D01*
X18551736Y-15503450D01*
X18566021Y-15517736D01*
X18580307Y-15546307D01*
X18580307Y-15632021D01*
X18566021Y-15660593D01*
X18551736Y-15674879D01*
X18523164Y-15689164D01*
X18480307Y-15689164D01*
X18666021Y-15489164D02*
X18780307Y-15489164D01*
X18708878Y-15389164D02*
X18708878Y-15646307D01*
X18723164Y-15674879D01*
X18751736Y-15689164D01*
X18780307Y-15689164D01*
X19108878Y-15489164D02*
X19108878Y-15789164D01*
X19108878Y-15503450D02*
X19137450Y-15489164D01*
X19194593Y-15489164D01*
X19223164Y-15503450D01*
X19237450Y-15517736D01*
X19251736Y-15546307D01*
X19251736Y-15632021D01*
X19237450Y-15660593D01*
X19223164Y-15674879D01*
X19194593Y-15689164D01*
X19137450Y-15689164D01*
X19108878Y-15674879D01*
X19423164Y-15689164D02*
X19394593Y-15674879D01*
X19380307Y-15646307D01*
X19380307Y-15389164D01*
X19666021Y-15689164D02*
X19666021Y-15532021D01*
X19651736Y-15503450D01*
X19623164Y-15489164D01*
X19566021Y-15489164D01*
X19537450Y-15503450D01*
X19666021Y-15674879D02*
X19637450Y-15689164D01*
X19566021Y-15689164D01*
X19537450Y-15674879D01*
X19523164Y-15646307D01*
X19523164Y-15617736D01*
X19537450Y-15589164D01*
X19566021Y-15574879D01*
X19637450Y-15574879D01*
X19666021Y-15560593D01*
X19766021Y-15489164D02*
X19880307Y-15489164D01*
X19808878Y-15389164D02*
X19808878Y-15646307D01*
X19823164Y-15674879D01*
X19851736Y-15689164D01*
X19880307Y-15689164D01*
X20094593Y-15674879D02*
X20066021Y-15689164D01*
X20008878Y-15689164D01*
X19980307Y-15674879D01*
X19966021Y-15646307D01*
X19966021Y-15532021D01*
X19980307Y-15503450D01*
X20008878Y-15489164D01*
X20066021Y-15489164D01*
X20094593Y-15503450D01*
X20108878Y-15532021D01*
X20108878Y-15560593D01*
X19966021Y-15589164D01*
X20366021Y-15689164D02*
X20366021Y-15389164D01*
X20366021Y-15674879D02*
X20337450Y-15689164D01*
X20280307Y-15689164D01*
X20251736Y-15674879D01*
X20237450Y-15660593D01*
X20223164Y-15632021D01*
X20223164Y-15546307D01*
X20237450Y-15517736D01*
X20251736Y-15503450D01*
X20280307Y-15489164D01*
X20337450Y-15489164D01*
X20366021Y-15503450D01*
X20480307Y-15803450D02*
X20494593Y-15789164D01*
X20523164Y-15746307D01*
X20537450Y-15717736D01*
X20551736Y-15674879D01*
X20566021Y-15603450D01*
X20566021Y-15546307D01*
X20551736Y-15474879D01*
X20537450Y-15432021D01*
X20523164Y-15403450D01*
X20494593Y-15360593D01*
X20480307Y-15346307D01*
M02*
